<svg width="49" height="50" viewBox="0 0 49 50" fill="none" xmlns="http://www.w3.org/2000/svg">
  <g clip-path="url(#clip0_5941_127271)">
    <path d="M26.4796 35.5246C21.3519 35.7786 18.3406 32.211 16.8531 29.4537C16.188 28.2322 15.535 27.0229 14.8698 25.8014C13.5032 23.286 8.31513 20.2989 4.2759 24.3986L4.25171 24.4228C2.42559 26.261 2.43769 29.236 4.2759 31.0621L18.3648 45.0422C20.203 46.8683 23.178 46.8562 25.0042 45.018L27.4108 42.5872L30.8574 39.1164C31.3049 37.5926 31.2081 35.2948 26.4796 35.5246Z" fill="url(#paint0_linear_5941_127271)"/>
    <path d="M45.2365 24.4347C43.9062 22.7538 42.2736 22.2821 40.9917 22.2337C39.2502 22.1733 37.6176 23.177 36.8557 24.7371C36.8557 24.7492 36.8436 24.7492 36.8436 24.7613C36.4082 25.6562 36.0938 26.6237 35.5375 27.446C34.9812 28.2684 34.1105 28.9698 33.1188 28.994C32.0908 29.0182 31.1717 28.3047 30.6033 27.446C30.0349 26.5874 29.7568 25.5836 29.3819 24.6162C28.233 21.6049 25.7176 18.9443 23.1175 17.0335C22.1984 16.3563 20.4206 15.5581 19.308 15.4009C19.2838 15.4009 19.2596 15.3888 19.2354 15.3888C15.8976 14.9051 12.5356 16.0661 10.1532 18.4606L4.2395 24.4347C8.27873 20.2988 13.491 23.2859 14.8576 25.8134C15.5227 27.0349 16.1758 28.2442 16.8409 29.4656C18.3284 32.2109 21.3397 35.7785 26.4674 35.5366C32.2843 35.2584 31.0871 38.7897 30.4945 40.0233C30.2163 40.6038 30.0591 41.2447 30.0712 41.8978C30.0833 42.3089 30.1196 42.575 30.1196 42.575C30.8331 46.1184 34.9207 46.5054 35.598 42.575C35.6221 42.4662 35.6342 42.3452 35.6463 42.2243C35.7068 41.1601 35.6705 40.5433 34.9812 39.3218C34.9812 39.3218 33.4211 36.7338 35.8519 34.0612L44.2327 25.632" fill="url(#paint1_linear_5941_127271)"/>
    <path d="M48.0301 12.559C47.9092 12.3655 46.9417 10.8538 44.8133 10.1524C41.6448 9.10028 38.2223 10.745 36.8195 13.7805C36.5413 14.3851 36.2753 14.8326 35.9245 15.1954C34.4975 16.6466 32.877 15.8847 32.2723 14.2642C32.0062 13.5628 31.8611 13.0428 31.583 12.1237C31.2323 10.9627 30.2648 9.28168 27.2293 8.6891C23.6859 7.99977 19.7918 8.91888 18.135 10.4064L10.7217 17.9285C13.5757 15.4736 16.8652 15.0382 19.3081 15.401C20.4328 15.5703 22.1984 16.3685 23.1175 17.0336C25.7176 18.9444 28.221 21.605 29.382 24.6162C29.7448 25.5716 30.035 26.5875 30.6034 27.4461C31.1718 28.3048 32.0909 29.0183 33.1188 28.9941C34.1105 28.9699 34.9812 28.2685 35.5375 27.4461C36.0939 26.6238 36.4083 25.6563 36.8436 24.7614C36.8436 24.7493 36.8557 24.7493 36.8557 24.7372C37.6176 23.165 39.2503 22.1734 40.9917 22.2338C42.2736 22.2822 43.9063 22.7417 45.2365 24.4348C45.2365 24.4348 47.6069 21.1696 48.1027 17.9648C48.4171 16.175 48.3929 14.3368 48.0301 12.559Z" fill="url(#paint2_linear_5941_127271)"/>
    <path d="M44.8253 10.1524C41.6568 9.10026 38.2344 10.745 36.8315 13.7804C36.5534 14.3851 36.2873 14.8326 35.9366 15.1954C34.5096 16.6466 32.8891 15.8847 32.2844 14.2642C32.0183 13.5628 31.8732 13.0427 31.5951 12.1236C31.2443 10.9627 30.2769 9.28166 27.2414 8.68908C23.5892 7.97556 19.562 8.97932 18.002 10.5394L23.0812 5.43593L23.1417 5.37546C28.9466 -0.610829 38.3069 -0.574548 44.0151 5.08521C45.8896 6.94761 47.1594 9.19701 47.8124 11.5794L48.0543 12.5832C48.0543 12.5832 47.111 10.9022 44.8253 10.1524Z" fill="url(#paint3_linear_5941_127271)"/>
    <path d="M1.63954 48.0292C-0.00517318 46.3845 -0.00517318 43.7239 1.63954 42.0913L8.48447 35.2463L14.4466 41.1601L7.57745 48.0292C5.93274 49.6618 3.27217 49.6618 1.63954 48.0292Z" fill="#FFBB00"/>
    <path opacity="0.15" d="M12.9348 42.6476C12.9348 42.6476 10.0686 38.947 5.70288 38.0037L8.48438 35.2463L14.4465 41.1601L12.9348 42.6476Z" fill="#361736"/>
    <path d="M41.5603 23.4308C41.137 23.068 40.496 23.1527 40.109 23.5518L39.6737 24.0113C39.2625 24.4467 39.2504 25.1844 39.71 25.5593C39.9035 25.7165 40.1332 25.7891 40.363 25.7891C40.6412 25.7891 40.9072 25.6802 41.1128 25.4625L41.6449 24.8941C42.0561 24.483 42.0198 23.8057 41.5603 23.4308Z" fill="white"/>
    <path d="M34.1228 41.4381C33.6027 41.2325 33.0223 41.5228 32.7925 42.0186L32.6474 42.3693C32.4055 42.9135 32.6232 43.615 33.1916 43.8205C33.4213 43.9052 33.6632 43.9052 33.8809 43.8326C34.1349 43.748 34.3646 43.5545 34.4856 43.2884L34.6912 42.8168C34.933 42.2847 34.6791 41.6558 34.1228 41.4381Z" fill="white"/>
    <path d="M44.5836 10.4426C44.3054 9.92253 43.6645 9.74113 43.1445 10.0435C42.6607 10.3337 42.5398 10.9747 42.7937 11.4705C43.5556 12.9217 43.7612 13.9859 43.7612 15.6549C43.7612 17.0214 43.4952 18.3638 42.9752 19.6094C42.7454 20.1657 42.6123 20.456 42.2374 21.0002C41.923 21.4476 41.9956 22.0886 42.4309 22.4272C42.6244 22.5723 42.8421 22.6449 43.0598 22.6449C43.3863 22.6449 43.7008 22.4877 43.9064 22.2095C44.378 21.5323 44.5836 21.109 44.8859 20.4076C45.5148 18.8959 45.8292 17.2996 45.8292 15.6669C45.8292 13.6352 45.5269 12.2203 44.5836 10.4426Z" fill="white"/>
  </g>
  <defs>
    <linearGradient id="paint0_linear_5941_127271" x1="24.8617" y1="23.0655" x2="0.934605" y2="51.5305" gradientUnits="userSpaceOnUse">
      <stop offset="0.1351" stop-color="#C20083"/>
      <stop offset="0.3405" stop-color="#FF00A8"/>
      <stop offset="0.3757" stop-color="#FF09AE"/>
      <stop offset="0.4339" stop-color="#FF22BF"/>
      <stop offset="0.5078" stop-color="#FF4BDB"/>
      <stop offset="0.5892" stop-color="#FF80FF"/>
    </linearGradient>
    <linearGradient id="paint1_linear_5941_127271" x1="31.6141" y1="10.1273" x2="14.3849" y2="46.0168" gradientUnits="userSpaceOnUse">
      <stop offset="0.1208" stop-color="#C20083"/>
      <stop offset="0.4554" stop-color="#FF00A8"/>
      <stop offset="0.4912" stop-color="#FF09AE"/>
      <stop offset="0.5503" stop-color="#FF22BF"/>
      <stop offset="0.6253" stop-color="#FF4BDB"/>
      <stop offset="0.708" stop-color="#FF80FF"/>
    </linearGradient>
    <linearGradient id="paint2_linear_5941_127271" x1="36.8339" y1="-2.14868" x2="22.2974" y2="37.7901" gradientUnits="userSpaceOnUse">
      <stop offset="0.2432" stop-color="#C20083"/>
      <stop offset="0.4595" stop-color="#FF00A8"/>
      <stop offset="0.4992" stop-color="#FF09AE"/>
      <stop offset="0.565" stop-color="#FF22BF"/>
      <stop offset="0.6485" stop-color="#FF4BDB"/>
      <stop offset="0.7405" stop-color="#FF80FF"/>
    </linearGradient>
    <linearGradient id="paint3_linear_5941_127271" x1="39.3186" y1="-5.71107" x2="30.354" y2="18.919" gradientUnits="userSpaceOnUse">
      <stop offset="0.2135" stop-color="#C20083"/>
      <stop offset="0.4648" stop-color="#FF00A8"/>
      <stop offset="1" stop-color="#FF80FF"/>
    </linearGradient>
    <clipPath id="clip0_5941_127271">
      <rect width="47.9145" height="48.3861" fill="white" transform="translate(0.406006 0.864502)"/>
    </clipPath>
  </defs>
</svg>